<svg id="Ebene_1" data-name="Ebene 1" xmlns="http://www.w3.org/2000/svg" xmlns:xlink="http://www.w3.org/1999/xlink" viewBox="0 0 215.96104 289.29281"><defs><style>.cls-1{fill:none;}.cls-2{clip-path:url(#clip-path);}.cls-3{fill:#ff6b6b;}</style><clipPath id="clip-path"><rect class="cls-1" y="1.51484" width="215.96104" height="239.42255"/></clipPath></defs><title>powerjs-logo</title><g class="cls-2"><path d="M213.06275,77.96971c-1.79026-15.16575-7.10325-27.03735-15.7949-35.26582A41.18489,41.18489,0,0,0,168.7751,31.45048c-.374,0-.75276,0-1.12517.01246a41.40859,41.40859,0,0,0-33.53032-16.48655,50.14315,50.14315,0,0,0-9.22372.867,39.348,39.348,0,0,0-29.136-13.46626A36.12,36.12,0,0,0,76.99946,7.65874a38.0788,38.0788,0,0,0-20.87618-6.1439A35.35727,35.35727,0,0,0,30.83387,11.63842c-6.48511,6.49762-9.90912,15.2205-9.89661,25.222.01252,11.84662.04222,14.36619.07355,16.79807.02345,1.94524.04227,3.79027.05478,10.51479A38.20073,38.20073,0,0,0,1.95617,87.641c-4.69481,15.9498-.95932,36.48957,11.42558,62.79928a306.103,306.103,0,0,0,22.61176,39.36752l2.07823,27.62582a23.87771,23.87771,0,0,0,23.71187,21.99983l98.4626-.12212A23.859,23.859,0,0,0,183.8,218.62455l3.82155-29.12189c29.18293-45.79312,28.51627-85.53935,25.44116-111.53295Zm-40.15,108.17146-4.00936,30.53347a8.752,8.752,0,0,1-8.67443,7.60556l-98.43288.10956h-.01251a8.75793,8.75793,0,0,1-8.73543-8.09384L50.84783,186.9956a8.69013,8.69013,0,0,0-1.51641-4.29726c-9.00936-13.09387-59.3267-89.494-18.571-106.51263a8.73123,8.73123,0,0,0,5.33639-8.05788c-.02971-20.78386-.10956-8.31291-.13926-31.29244C35.93873,23.161,45.90268,16.53507,56.12328,16.53507A22.38242,22.38242,0,0,1,72.721,23.61329c1.35676,1.51011,2.543,2.122,3.71046,2.122,1.748,0,3.46007-1.38813,5.63531-3.25347A20.90912,20.90912,0,0,1,95.75993,17.402c7.27537,0,14.67127,3.687,19.69,10.64317a8.57613,8.57613,0,0,0,6.99368,3.51489,8.99976,8.99976,0,0,0,2.30514-.299,36.95173,36.95173,0,0,1,9.37084-1.266c7.73859,0,16.86532,2.79341,23.58984,13.43027,1.19873,1.88888,3.19714,3.53987,5.36772,3.53987a3.83009,3.83009,0,0,0,.7402-.06729,28.54822,28.54822,0,0,1,4.95773-.42719c12.26281,0,26.377,7.94044,29.37227,33.2595,3.16743,26.8371,2.421,62.11548-23.88874,102.77872a8.86364,8.86364,0,0,0-1.34584,3.63219Zm0,0"/></g><path class="cls-3" d="M13.94287,279.99121a3.08054,3.08054,0,0,1-.83984-2.28027V249.63086a2.87186,2.87186,0,0,1,.792-2.16016,3.00477,3.00477,0,0,1,2.18408-.76757H27.88721q5.42358,0,8.44775,2.71191a11.11306,11.11306,0,0,1,0,15.24023q-3.02417,2.73488-8.44775,2.73536H19.29492v10.32031a2.89869,2.89869,0,0,1-3.11963,3.12011A3.01765,3.01765,0,0,1,13.94287,279.99121Zm13.17627-17.35254q6.38305,0,6.38379-5.56738,0-5.56786-6.38379-5.56836H19.29492v11.13574Z"/><path class="cls-3" d="M47.78369,279.43945A10.29059,10.29059,0,0,1,43.5835,275.167a13.54,13.54,0,0,1-1.4878-6.48047,13.39928,13.39928,0,0,1,1.4878-6.45507,10.32855,10.32855,0,0,1,4.20019-4.248,12.90934,12.90934,0,0,1,6.312-1.48828,12.91461,12.91461,0,0,1,6.312,1.48828,10.1907,10.1907,0,0,1,4.17579,4.248,13.586,13.586,0,0,1,1.46386,6.45507A13.72906,13.72906,0,0,1,64.5835,275.167a10.15457,10.15457,0,0,1-4.17579,4.27246,12.9143,12.9143,0,0,1-6.312,1.48731A12.909,12.909,0,0,1,47.78369,279.43945Zm10.728-5.08886a11.16848,11.16848,0,0,0,0-11.30371,5.298,5.298,0,0,0-4.416-1.94434,5.36466,5.36466,0,0,0-4.44043,1.94434,11.09395,11.09395,0,0,0-.02392,11.30371,5.32378,5.32378,0,0,0,4.416,1.91992A5.38055,5.38055,0,0,0,58.51172,274.35059Z"/><path class="cls-3" d="M103.31934,257.07129a2.50065,2.50065,0,0,1,1.416-.43262,3.02948,3.02948,0,0,1,1.99219.74414,2.321,2.321,0,0,1,.88769,1.84864,2.43688,2.43688,0,0,1-.23974,1.10351l-7.92041,18.57617a2.88136,2.88136,0,0,1-1.17578,1.3916,3.32208,3.32208,0,0,1-1.752.48047,3.23567,3.23567,0,0,1-1.7041-.48047,2.8762,2.8762,0,0,1-1.17578-1.3916l-5.71191-13.72851-5.52,13.72851a2.88486,2.88486,0,0,1-1.17627,1.3916,3.32206,3.32206,0,0,1-1.752.48047,3.36068,3.36068,0,0,1-1.728-.48047,2.83955,2.83955,0,0,1-1.2002-1.3916L68.6875,260.335a3.029,3.029,0,0,1-.24023-1.05566,2.38507,2.38507,0,0,1,.96-1.89649,3.24252,3.24252,0,0,1,2.1123-.792,2.69706,2.69706,0,0,1,1.48779.43262,2.6,2.6,0,0,1,1.00782,1.2959L79.6792,272.959l5.8081-14.49609a2.882,2.882,0,0,1,5.376,0l5.856,14.54395,5.61621-14.63965A2.64882,2.64882,0,0,1,103.31934,257.07129Z"/><path class="cls-3" d="M131.20605,274.73535A2.59754,2.59754,0,0,1,131.71,276.415a2.90975,2.90975,0,0,1-1.77539,2.49609,16.01005,16.01005,0,0,1-3.69629,1.46387,15.27193,15.27193,0,0,1-3.936.55176q-5.66382,0-8.97559-3.26367-3.312-3.26369-3.312-8.92774a13.7013,13.7013,0,0,1,1.43994-6.38476,10.4729,10.4729,0,0,1,4.05566-4.31934,11.48426,11.48426,0,0,1,5.92823-1.53613,10.64077,10.64077,0,0,1,5.52,1.3916,9.44786,9.44786,0,0,1,3.64795,3.93652,13.05613,13.05613,0,0,1,1.29589,6q0,2.064-1.82421,2.06348H115.91846a7.54872,7.54872,0,0,0,1.87207,4.87207,6.29887,6.29887,0,0,0,4.60791,1.56055,8.71228,8.71228,0,0,0,2.71191-.38477,26.478,26.478,0,0,0,2.66406-1.05566,5.29739,5.29739,0,0,1,2.11182-.76758A1.61432,1.61432,0,0,1,131.20605,274.73535Zm-13.53564-12.48047a7.24971,7.24971,0,0,0-1.752,4.416H126.7666a6.84892,6.84892,0,0,0-1.43994-4.43945,4.74861,4.74861,0,0,0-3.74414-1.5127A5.15252,5.15252,0,0,0,117.67041,262.25488Z"/><path class="cls-3" d="M151.87109,257.11914a2.34523,2.34523,0,0,1,.71973,1.87207,2.62018,2.62018,0,0,1-.624,1.91992,3.829,3.829,0,0,1-2.25586.81543l-1.44043.14453a5.82621,5.82621,0,0,0-4.15137,1.91993,6.27419,6.27419,0,0,0-1.32031,4.08007v10.08008a2.66319,2.66319,0,0,1-.86426,2.13574,3.193,3.193,0,0,1-2.16016.74414,3.10158,3.10158,0,0,1-2.13574-.74414,2.69957,2.69957,0,0,1-.83984-2.13574V259.375a2.56991,2.56991,0,0,1,.83984-2.06445,3.09726,3.09726,0,0,1,2.08789-.71973,2.89011,2.89011,0,0,1,2.0166.69629,2.5548,2.5548,0,0,1,.76758,1.99219v1.91992a7.10311,7.10311,0,0,1,2.71192-3.26465,8.32706,8.32706,0,0,1,4.00781-1.2959l.67187-.04785A2.58853,2.58853,0,0,1,151.87109,257.11914Z"/><path d="M154.36719,279.79883a3.77533,3.77533,0,0,1,0-5.13574,3.65091,3.65091,0,0,1,5.08789,0,3.77533,3.77533,0,0,1,0,5.13574,3.65093,3.65093,0,0,1-5.08789,0Z"/><path d="M159.957,288.79883a1.93912,1.93912,0,0,1-.93555-1.77539q0-1.96875,2.39942-2.16016l1.29687-.09668a3.40576,3.40576,0,0,0,2.44727-1.00781,4.0761,4.0761,0,0,0,.81641-2.78418V259.42285a2.6282,2.6282,0,0,1,.83984-2.1123,3.16833,3.16833,0,0,1,2.13574-.71973,3.26274,3.26274,0,0,1,2.16016.71973,2.59363,2.59363,0,0,1,.86426,2.1123V280.543q0,8.064-8.06446,8.63965l-1.2959.09668A4.61156,4.61156,0,0,1,159.957,288.79883Zm6.36035-37.36817a3.02069,3.02069,0,0,1-.96-2.32812,2.94552,2.94552,0,0,1,.96-2.30371,4.28323,4.28323,0,0,1,5.16016,0,2.91536,2.91536,0,0,1,.9834,2.30371,3.024,3.024,0,0,1-.96,2.32812,4.22378,4.22378,0,0,1-5.1836,0Z"/><path d="M178.22266,278.86328a2.86168,2.86168,0,0,1-1.53614-2.59277,2.27231,2.27231,0,0,1,.52832-1.55957,1.66044,1.66044,0,0,1,1.2959-.59961,5.3038,5.3038,0,0,1,2.25586.76758,20.92259,20.92259,0,0,0,2.80762,1.10449,11.43967,11.43967,0,0,0,3.24023.38379,6.16456,6.16456,0,0,0,3.14453-.67188,2.084,2.084,0,0,0,1.12793-1.87207,1.80585,1.80585,0,0,0-.456-1.2959,4.19281,4.19281,0,0,0-1.63184-.88867,34.72824,34.72824,0,0,0-3.57617-.93554,13.73954,13.73954,0,0,1-6.12012-2.44825,5.44544,5.44544,0,0,1-1.84765-4.36816,6.29542,6.29542,0,0,1,1.248-3.81543,8.078,8.078,0,0,1,3.43164-2.64063,12.50088,12.50088,0,0,1,4.96777-.93554,14.88715,14.88715,0,0,1,3.88769.5039,11.83089,11.83089,0,0,1,3.36036,1.46387,2.89919,2.89919,0,0,1,1.53613,2.54395,2.46624,2.46624,0,0,1-.52832,1.60839,1.61455,1.61455,0,0,1-1.2959.64747,2.58576,2.58576,0,0,1-1.03223-.21582,13.91178,13.91178,0,0,1-1.27148-.64747,19.99642,19.99642,0,0,0-2.40039-1.08007,7.47832,7.47832,0,0,0-2.4961-.36036,4.83544,4.83544,0,0,0-2.80761.71973,2.27529,2.27529,0,0,0-1.03223,1.96777,1.99436,1.99436,0,0,0,1.05664,1.82422,15.034,15.034,0,0,0,4.0791,1.248,23.28671,23.28671,0,0,1,5.04,1.53613,5.90014,5.90014,0,0,1,2.61621,2.16016,6.26281,6.26281,0,0,1,.792,3.31152,6.1553,6.1553,0,0,1-2.71192,5.23242,12.03618,12.03618,0,0,1-7.22363,1.96778A15.43192,15.43192,0,0,1,178.22266,278.86328Z"/></svg>